<?xml version="1.0" encoding="UTF-8" standalone="no"?>
<!-- Created with Inkscape (http://www.inkscape.org/) -->

<svg
   xmlns:dc="http://purl.org/dc/elements/1.1/"
   xmlns:cc="http://creativecommons.org/ns#"
   xmlns:rdf="http://www.w3.org/1999/02/22-rdf-syntax-ns#"
   xmlns:svg="http://www.w3.org/2000/svg"
   xmlns="http://www.w3.org/2000/svg"
   xmlns:sodipodi="http://sodipodi.sourceforge.net/DTD/sodipodi-0.dtd"
   xmlns:inkscape="http://www.inkscape.org/namespaces/inkscape"
   width="77.943542mm"
   height="25.73542mm"
   viewBox="0 0 77.943542 25.73542"
   version="1.1"
   id="svg8"
   inkscape:version="0.92.4 (5da689c313, 2019-01-14)"
   sodipodi:docname="returns.svg"
   inkscape:export-filename="/home/gram/Documents/brand/logo/returns.png"
   inkscape:export-xdpi="136.86"
   inkscape:export-ydpi="136.86">
  <defs
     id="defs2" />
  <sodipodi:namedview
     id="base"
     pagecolor="#ffffff"
     bordercolor="#666666"
     borderopacity="1.0"
     inkscape:pageopacity="0.0"
     inkscape:pageshadow="2"
     inkscape:zoom="5.6"
     inkscape:cx="95.294974"
     inkscape:cy="56.906859"
     inkscape:document-units="mm"
     inkscape:current-layer="layer1"
     showgrid="true"
     inkscape:snap-bbox="true"
     inkscape:window-width="3840"
     inkscape:window-height="2007"
     inkscape:window-x="0"
     inkscape:window-y="50"
     inkscape:window-maximized="1"
     fit-margin-left="0.1"
     fit-margin-right="0.1"
     fit-margin-top="0"
     fit-margin-bottom="0">
    <inkscape:grid
       type="xygrid"
       id="grid862"
       originx="-70.674051"
       originy="-170.62083" />
  </sodipodi:namedview>
  <metadata
     id="metadata5">
    <rdf:RDF>
      <cc:Work
         rdf:about="">
        <dc:format>image/svg+xml</dc:format>
        <dc:type
           rdf:resource="http://purl.org/dc/dcmitype/StillImage" />
        <dc:title />
      </cc:Work>
    </rdf:RDF>
  </metadata>
  <g
     inkscape:label="Layer 1"
     inkscape:groupmode="layer"
     id="layer1"
     transform="translate(-70.674048,-100.64375)">
    <path
       style="fill:#000000;stroke:#ffffff;stroke-width:0.60000002;stroke-miterlimit:4;stroke-dasharray:none;stroke-opacity:0.99646648;paint-order:stroke markers fill"
       d="m 130.96876,125.68229 c 0,-0.21828 0.11906,-0.39687 0.26458,-0.39687 0.14552,0 0.26458,0.17859 0.26458,0.39687 0,0.21829 -0.11906,0.39688 -0.26458,0.39688 -0.14552,0 -0.26458,-0.17859 -0.26458,-0.39688 z m -6.08542,-0.28019 c 0,-0.22687 0.11906,-0.33891 0.26458,-0.24897 0.14553,0.0899 0.26459,0.27556 0.26459,0.41249 0,0.13693 -0.11906,0.24897 -0.26459,0.24897 -0.14552,0 -0.26458,-0.18562 -0.26458,-0.41249 z m 4.89479,-0.84834 c -0.88838,-0.65268 -1.18751,-2.27072 -0.49177,-2.66007 0.315,-0.17629 0.38554,-0.43719 0.25683,-0.95001 -0.0986,-0.39297 -0.29953,-0.63153 -0.45231,-0.53711 -0.15117,0.0934 -0.22046,0.31165 -0.15397,0.48493 0.0665,0.17327 -0.0587,0.54818 -0.27828,0.83313 -0.37158,0.48225 -0.38865,0.44734 -0.24683,-0.50468 0.1053,-0.70684 0.0344,-1.14075 -0.22964,-1.40476 -0.33294,-0.33294 -0.44056,-0.25918 -0.83806,0.57438 -0.39265,0.82341 -0.54874,0.9331 -1.12274,0.78904 -0.36669,-0.092 -0.78798,-0.18792 -0.93621,-0.21307 -0.14823,-0.0252 -0.30841,0.29435 -0.35595,0.71001 -0.056,0.48923 0.014,0.69367 0.19843,0.5797 0.18243,-0.11275 0.28488,0.15239 0.28488,0.73729 0,0.58878 -0.14873,0.97042 -0.41852,1.07395 -0.58921,0.2261 -0.5581,0.2467 -1.01731,-0.6738 -0.54122,-1.0849 -0.52675,-1.72079 0.0468,-2.05483 0.40964,-0.23859 0.39153,-0.27061 -0.15707,-0.27773 -0.39341,-0.005 -0.67066,-0.20148 -0.75846,-0.53721 -0.0761,-0.29104 -0.30309,-0.52917 -0.5044,-0.52917 -0.2013,0 -0.36784,-0.14882 -0.37006,-0.33073 -0.003,-0.22048 -0.0896,-0.19843 -0.26054,0.0662 -0.19726,0.30525 -0.25835,0.21363 -0.26458,-0.39688 -0.005,-0.52741 -0.0821,-0.67703 -0.22867,-0.44591 -0.12132,0.19131 -0.17179,0.60803 -0.11218,0.92604 0.14568,0.77704 -0.92379,1.19822 -2.83415,1.11615 -1.46425,-0.0629 -2.24952,0.22367 -1.94833,0.71101 0.10265,0.16608 -0.069,0.18845 -0.46593,0.0607 -0.34565,-0.11122 -0.77728,-0.20335 -0.95918,-0.20473 -0.1819,-10e-4 -0.33073,-0.15011 -0.33073,-0.33052 0,-0.20218 -0.21157,-0.27268 -0.55153,-0.18378 -0.41933,0.10966 -0.46689,0.19788 -0.19844,0.36806 0.20686,0.13112 0.2309,0.2255 0.058,0.22787 -0.16228,0.002 -0.60761,-0.24181 -0.98963,-0.54231 -0.38202,-0.3005 -0.8148,-0.47206 -0.96172,-0.38126 -0.14693,0.0908 -0.26714,0.0502 -0.26714,-0.0903 0,-0.14049 -0.23876,-0.193 -0.53058,-0.11668 -0.29182,0.0763 -0.69463,0.003 -0.89514,-0.16382 -0.28124,-0.23341 -0.40144,-0.20647 -0.52589,0.11784 -0.0887,0.23121 -0.28223,0.34567 -0.43001,0.25433 -0.14778,-0.0913 -0.3701,0.10807 -0.49404,0.44312 -0.17831,0.482 -0.42637,0.60982 -1.18833,0.61231 -0.52964,0.002 -0.96301,-0.0947 -0.96304,-0.2142 -1.2e-4,-0.47173 -0.70141,-0.86886 -1.45526,-0.82408 -1.59827,0.0949 -1.61531,0.11169 -0.79485,0.78201 l 0.79265,0.64761 -0.8588,-0.10869 c -0.79432,-0.10053 -0.8588,-0.0517 -0.8588,0.65018 0,0.77581 -0.54665,1.3991 -0.73404,0.83694 -0.0571,-0.17128 -0.26829,-0.31143 -0.46932,-0.31143 -0.47513,0 -0.95543,-0.90529 -0.75601,-1.42496 0.10742,-0.27995 -0.0557,-0.45794 -0.52829,-0.57656 -0.37602,-0.0944 -0.61605,-0.28103 -0.53337,-0.4148 0.0827,-0.13376 -0.21962,-0.37216 -0.67176,-0.52977 -0.571657,-0.19929 -0.745547,-0.37876 -0.570887,-0.58922 0.16252,-0.19582 0.12715,-0.47226 -0.1002,-0.78318 -0.33683,-0.46065 -0.35824,-0.45889 -0.51736,0.0425 -0.0913,0.28764 -0.34005,0.58978 -0.55279,0.67141 -0.56884,0.21829 -0.47105,0.86977 0.20124,1.34066 l 0.58803,0.41188 h -0.59634 c -0.32799,0 -0.66685,0.18373 -0.75302,0.4083 -0.13866,0.36134 -0.21378,0.35663 -0.65316,-0.041 -0.55879,-0.5057 -0.62866,-0.34222 -0.21796,0.51 0.15318,0.31786 -0.11742,0.12819 -0.60134,-0.42148 -0.68579,-0.77898 -0.950073,-0.92916 -1.198293,-0.68094 -0.24823,0.24822 -0.43655,0.21159 -0.85388,-0.16609 -0.30155,-0.2729 -0.53542,-0.35106 -0.53542,-0.17895 0,0.16807 -0.11533,0.30559 -0.25628,0.30559 -0.14095,0 -0.18775,-0.1786 -0.10398,-0.39688 0.18367,-0.47863 4.7e-4,-0.49237 -1.12738,-0.0845 -0.78755,0.28478 -0.91001,0.25561 -1.38819,-0.33073 -0.45986,-0.56388 -0.54585,-0.5881 -0.69829,-0.19675 -0.0956,0.24548 -0.33054,0.38619 -0.52206,0.31269 -0.645321,-0.24763 -0.707573,0.43471 -0.12557,1.37641 0.31787,0.51432 0.51125,1.00183 0.42973,1.08334 -0.0815,0.0815 -0.39003,-0.24941 -0.68558,-0.7354 -0.476312,-0.78324 -0.65077,-0.87477 -1.535609,-0.80563 -0.549037,0.0429 -1.147077,0.27126 -1.328978,0.50748 -0.297148,0.38587 -0.330729,0.38696 -0.330729,0.0107 0,-0.35718 -0.739276,-0.73738 -1.719792,-0.88446 -0.145521,-0.0218 -0.49016,-0.13682 -0.765865,-0.25554 -0.353035,-0.15202 -0.600924,-0.0796 -0.838211,0.24492 -0.267853,0.36631 -0.446554,0.40211 -0.871637,0.17461 -0.618563,-0.33104 -3.212829,0.112 -3.212829,0.54868 0,0.15055 -0.25125,0.17958 -0.595312,0.0688 -0.327422,-0.10544 -0.744141,-0.19284 -0.926042,-0.19422 -0.181901,-0.001 -0.330729,-0.15011 -0.330729,-0.33052 0,-0.20218 -0.211576,-0.27268 -0.551533,-0.18378 -0.419328,0.10966 -0.466894,0.19788 -0.198438,0.36806 0.206854,0.13112 0.230895,0.2255 0.05805,0.22787 -0.162276,0.002 -0.607611,-0.24181 -0.989633,-0.54231 -0.382021,-0.3005 -0.814797,-0.47206 -0.961723,-0.38126 -0.146926,0.0908 -0.267138,0.039 -0.267138,-0.1151 0,-0.1541 -0.297656,-0.28019 -0.661458,-0.28019 -0.655236,0 -0.788556,-0.27369 -0.675644,-1.38701 0.03358,-0.3311 -0.07892,-0.41274 -0.399332,-0.28979 -0.399105,0.15315 -0.394443,0.0924 0.04426,-0.57718 0.36751,-0.56089 0.406132,-0.77644 0.154174,-0.86043 -0.257869,-0.086 -0.264426,-0.1985 -0.02815,-0.4832 0.235281,-0.28349 0.230238,-0.46487 -0.02135,-0.76802 -0.188907,-0.22762 -0.215069,-0.39687 -0.06134,-0.39687 0.147418,0 0.34021,-0.44649 0.428426,-0.99219 0.08822,-0.5457 0.20982,-1.26008 0.270232,-1.5875 0.06041,-0.32742 0.0013,-0.59531 -0.131445,-0.59531 -0.132707,0 -0.243109,0.20836 -0.245337,0.46302 -0.0034,0.38467 -0.04525,0.39788 -0.247537,0.0781 -0.161918,-0.25596 -0.09874,-0.62994 0.18858,-1.11634 0.575617,-0.97444 0.224833,-1.25656 -0.599493,-0.48215 -0.704859,0.66218 -0.921094,0.46103 -0.273564,-0.25448 0.476927,-0.527 0.246175,-1.59035 -0.351564,-1.62007 -0.259954,-0.0129 -0.139737,-0.15101 0.301689,-0.34653 0.403619,-0.17877 0.670327,-0.38857 0.592686,-0.46621 -0.07764,-0.0776 0.137031,-0.44134 0.477051,-0.80823 0.548681,-0.59204 0.571297,-0.70003 0.201065,-0.96008 -0.361797,-0.25412 -0.353745,-0.27192 0.06068,-0.13416 0.604825,0.20107 1.666681,-0.8842 1.548379,-1.58251 -0.05189,-0.30631 0.02633,-0.43239 0.201215,-0.32431 0.157363,0.0973 0.286114,0.34043 0.286114,0.54038 0,0.47203 2.10021,0.31419 2.428051,-0.18247 0.178753,-0.2708 0.285905,-0.24544 0.500354,0.11842 0.15009,0.25466 0.495177,0.46302 0.766861,0.46302 0.271684,0 0.533658,0.10459 0.582165,0.23241 0.137147,0.3614 1.807986,0.65508 1.807986,0.31778 0,-0.15708 0.12609,-0.2856 0.280199,-0.2856 0.154109,0 0.226137,0.0893 0.160062,0.19843 -0.06607,0.10914 0.04596,0.35196 0.248968,0.5396 0.203008,0.18764 0.370928,0.24717 0.373156,0.13229 0.0022,-0.11487 0.119468,-0.0303 0.260532,0.18801 0.199045,0.308 0.265457,0.21913 0.296563,-0.39688 0.03171,-0.62787 0.06405,-0.66934 0.154746,-0.19843 0.117494,0.61001 0.710896,0.80482 1.0045,0.32976 0.09027,-0.14606 0.472239,-0.18823 0.848828,-0.0937 1.106942,0.27783 0.487542,-0.33483 -0.858063,-0.84873 -0.656584,-0.25075 -1.147082,-0.50261 -1.089997,-0.5597 0.05709,-0.0571 0.704685,0.13306 1.439111,0.42254 1.217814,0.48002 1.366197,0.48913 1.686217,0.10353 0.297475,-0.35844 0.274885,-0.4673 -0.148383,-0.71507 -0.274604,-0.16075 -0.809563,-0.56687 -1.188797,-0.90248 -0.682864,-0.60433 -0.683521,-0.60855 -0.06808,-0.4369 0.341787,0.0953 0.857725,0.4096 1.146528,0.69841 0.684192,0.68419 0.879942,0.45334 0.511589,-0.60332 -0.162346,-0.4657 -0.285775,-1.09686 -0.274286,-1.40256 0.02263,-0.60217 0.107046,-0.43555 0.3606,0.71176 0.100618,0.45528 0.277344,0.66787 0.460899,0.55443 0.172673,-0.10672 0.224616,-0.0657 0.123676,0.0976 -0.09572,0.15488 -0.100208,0.47397 -0.01,0.70909 0.120412,0.31379 0.254217,0.35268 0.503029,0.14618 0.253963,-0.21077 0.518714,-0.0632 1.055618,0.58856 0.394152,0.47844 0.649625,0.66534 0.567719,0.41534 -0.08191,-0.25 -0.03506,-0.52492 0.104106,-0.61093 0.139165,-0.086 0.253024,0.0205 0.253024,0.23671 0,0.69344 0.90178,0.62885 1.25318,-0.0898 0.2902,-0.59344 0.31003,-0.51381 0.17564,0.70536 -0.13767,1.2488 -0.10411,1.37077 0.36736,1.33526 0.36194,-0.0273 0.52639,-0.24287 0.54374,-0.71288 0.0534,-1.44602 0.12009,-1.6105 0.59233,-1.46062 0.77708,0.24664 0.86852,-0.4058 0.16158,-1.1529 -0.69526,-0.73475 -0.79629,-1.03302 -0.74393,-2.19627 0.0282,-0.62764 0.13535,-0.69785 1.08437,-0.71095 1.17622,-0.0162 1.4579,0.25681 1.37585,1.33364 -0.0385,0.50516 0.0695,0.73518 0.34506,0.73518 0.22059,0 0.40107,-0.0931 0.40107,-0.20688 0,-0.11378 0.29766,-0.23151 0.661465,-0.26162 0.363798,-0.0301 0.661458,0.0498 0.661458,0.17748 0,0.12772 0.20533,0.21569 0.45629,0.19548 0.25096,-0.0202 0.46933,0.14184 0.48526,0.36012 0.0605,0.82963 0.7793,2.11667 1.18205,2.11667 0.23105,0 0.55495,-0.32742 0.71978,-0.7276 0.27928,-0.67804 0.28928,-0.65741 0.14675,0.30283 -0.10895,0.73396 -0.0663,0.97687 0.14825,0.84428 0.16567,-0.10239 0.30121,-0.43305 0.30121,-0.73482 0,-0.66641 1.018427,-1.6087 1.527537,-1.41334 0.2023,0.0776 0.48463,0.14115 0.6274,0.14115 0.14276,0 0.22529,0.20836 0.1834,0.46302 -0.11431,0.69479 0.26192,1.12448 0.98457,1.12448 0.41018,0 0.64584,-0.1514 0.64584,-0.41492 0,-0.33266 0.23194,-0.39075 1.16989,-0.29301 0.64344,0.067 1.32207,0.21596 1.50807,0.33091 0.47976,0.29651 3.14287,0.34647 3.14287,0.059 0,-0.13141 -0.80367,-0.61661 -1.78593,-1.07824 -1.04971,-0.49333 -1.60105,-0.87619 -1.33744,-0.92875 0.24668,-0.0492 1.16389,0.24548 2.03826,0.65479 l 1.58975,0.74421 0.0784,1.4343 c 0.0498,0.9111 0.20843,1.47723 0.43484,1.55197 0.28867,0.0953 0.29659,0.006 0.0416,-0.47052 -0.41423,-0.77401 0.002,-1.22824 0.71664,-0.78197 0.68864,0.43006 1.66732,-0.33884 1.45666,-1.14441 -0.0956,-0.36554 -0.0423,-0.47872 0.16509,-0.35055 0.16844,0.10411 0.30626,0.35288 0.30626,0.55283 0,0.47203 2.10021,0.31419 2.42805,-0.18247 0.17875,-0.2708 0.28591,-0.24544 0.50036,0.11842 0.15008,0.25466 0.49517,0.46302 0.76686,0.46302 0.27168,0 0.53365,0.10459 0.58216,0.23241 0.0485,0.12782 0.47515,0.31588 0.94809,0.4179 1.01886,0.21978 1.1261,-0.16266 0.33073,-1.17947 -0.57825,-0.73926 -0.65802,-1.05834 -0.26458,-1.05834 0.14552,0 0.26458,0.15524 0.26458,0.34498 0,0.18973 0.41291,0.74518 0.91758,1.23432 0.79295,0.76856 0.94133,0.82745 1.09247,0.43357 0.10382,-0.27054 0.33747,-0.39339 0.57491,-0.30228 0.22,0.0844 0.63494,0.0789 0.92207,-0.0122 0.42802,-0.13585 0.49562,-0.32865 0.37527,-1.07026 -0.0867,-0.53435 -0.0449,-0.84161 0.10212,-0.75073 0.13691,0.0846 0.24891,0.3779 0.24891,0.65177 0,0.27387 0.1393,0.58403 0.30955,0.68925 0.20304,0.12548 0.25582,0.0513 0.15341,-0.21557 -0.10075,-0.26257 0.0793,-0.53288 0.50776,-0.76217 0.56549,-0.30264 0.69693,-0.29779 0.88681,0.0327 0.60221,1.0483 0.99935,1.39124 1.42292,1.22871 0.37329,-0.14325 0.39538,-0.26966 0.13464,-0.7706 l -0.3119,-0.59924 0.65936,0.60574 c 0.65938,0.60574 1.74367,0.678 2.91041,0.19395 0.28922,-0.11999 0.71231,0.0133 1.16016,0.36562 0.42442,0.33385 1.09078,0.55449 1.67465,0.55449 0.53335,0 1.08284,0.11295 1.22109,0.251 0.27634,0.27595 3.05578,-0.2455 3.06846,-0.57567 0.0282,-0.73347 0.35961,-1.26283 0.79067,-1.26283 0.39866,0 0.47033,0.13156 0.34457,0.63259 -0.0921,0.36694 -0.0264,0.71444 0.15658,0.82749 0.23146,0.14305 0.28945,-0.13081 0.21797,-1.02947 -0.0647,-0.81356 0.006,-1.22436 0.212,-1.22436 0.17016,0 0.38974,-0.47563 0.48795,-1.05695 0.17656,-1.045 0.53421,-1.53998 0.87007,-1.20412 0.0952,0.0952 0.0453,0.256 -0.11089,0.35722 -0.36055,0.23361 -0.75449,3.07242 -0.39558,2.8506 0.14049,-0.0868 0.45443,0.0411 0.69765,0.28435 0.36419,0.36419 0.48159,0.37852 0.66533,0.0812 0.12271,-0.19855 0.16441,-0.45599 0.0927,-0.57208 -0.0718,-0.11608 -0.002,-0.21107 0.15512,-0.21107 0.16247,0 0.0551,-0.45169 -0.24897,-1.04779 -0.60921,-1.19417 -0.63741,-1.33346 -0.26995,-1.33346 0.14552,0 0.26836,0.20836 0.27299,0.46302 0.0139,0.76405 0.66488,1.38907 1.4468,1.38907 0.40447,0 0.89144,-0.20836 1.08215,-0.46302 0.31245,-0.41725 0.33099,-0.40066 0.18748,0.16771 -0.11809,0.46772 -0.0634,0.59879 0.2116,0.50712 0.20397,-0.068 0.3751,-0.23276 0.3803,-0.36615 0.0144,-0.36931 0.75094,-1.43316 0.99223,-1.43316 0.11711,0 0.13437,0.4187 0.0384,0.93045 -0.10522,0.56088 -0.0371,1.26224 0.17145,1.76578 l 0.346,0.83532 0.4584,-1.03817 c 0.35117,-0.79533 0.46299,-0.90102 0.47802,-0.45184 0.0108,0.32249 -0.18388,1.01308 -0.4326,1.53465 -0.36548,0.76644 -0.39086,1.04656 -0.13229,1.46059 0.44172,0.70731 0.4024,0.84588 -0.18697,0.65883 -0.54881,-0.17419 -1.05823,0.34108 -0.61083,0.61782 0.3034,0.18767 0.26072,1.61342 -0.064,2.13887 -0.13119,0.21227 -0.52285,0.28625 -1.05675,0.19961 -0.6252,-0.10146 -0.84831,-0.0376 -0.84831,0.24277 0,0.20924 0.12899,0.33245 0.28664,0.2738 0.15764,-0.0587 0.60448,0.18928 0.99297,0.55095 l 0.70634,0.65758 1.50844,-0.69059 c 2.25236,-1.03116 2.39036,-0.83404 0.16329,0.23325 -1.06376,0.5098 -1.85384,1.04341 -1.76285,1.19063 0.0907,0.14673 0.0451,0.26678 -0.1013,0.26678 -0.1464,0 -0.24719,0.47625 -0.22398,1.05833 0.036,0.90337 0.12799,1.05834 0.62804,1.05834 0.33545,0 0.63755,-0.19789 0.70683,-0.46302 0.10895,-0.41689 0.12406,-0.41848 0.1517,-0.016 0.0216,0.31427 0.32538,0.47787 1.02288,0.55083 l 0.99218,0.10379 -0.9932,0.0445 c -0.9424,0.0422 -1.00949,0.10538 -1.31165,1.23511 -0.23209,0.86777 -0.45128,1.19062 -0.80835,1.19062 -0.26944,0 -0.42161,0.11049 -0.33815,0.24554 0.0835,0.13504 -0.0784,0.31857 -0.35965,0.40784 -0.41694,0.13233 -0.47283,0.29677 -0.30259,0.89034 0.16406,0.57205 0.0737,0.89567 -0.42165,1.51039 -0.59277,0.7356 -0.63917,0.74995 -0.77657,0.24007 -0.0804,-0.29825 -0.3766,-0.68621 -0.6583,-0.86214 -0.46645,-0.2913 -0.51218,-0.24426 -0.51218,0.5267 0,0.80932 -0.0181,0.82397 -0.41057,0.33298 -0.39438,-0.49333 -0.40341,-0.4875 -0.22893,0.14786 0.0999,0.36381 0.31444,0.74894 0.47672,0.85585 0.18462,0.12162 0.12259,0.1959 -0.16571,0.19844 -0.25342,0.002 -0.60949,0.24217 -0.79124,0.53321 -0.34414,0.55105 -0.99693,0.7243 -0.99693,0.26459 0,-0.14552 -0.0893,-0.25049 -0.19844,-0.23325 -0.66624,0.10519 -0.86207,-0.12161 -0.88376,-1.02352 l -0.0239,-0.99219 -0.23243,0.79375 c -0.12783,0.43656 -0.4867,0.95134 -0.79748,1.14395 -0.50108,0.31056 -0.61358,0.28092 -0.99376,-0.26187 -0.23579,-0.33664 -0.39345,-0.88118 -0.35035,-1.2101 0.0666,-0.50819 -0.0437,-0.59802 -0.73431,-0.59802 -0.44698,0 -0.81269,0.11611 -0.81269,0.25803 0,0.16766 -0.23771,0.16766 -0.67868,0 -0.98925,-0.37611 -1.07683,-0.3216 -0.43857,0.27303 0.32791,0.30549 0.50379,0.70367 0.41408,0.93745 -0.17568,0.45781 -0.30638,0.37816 -0.7253,-0.44195 -0.37248,-0.72921 -0.81553,-0.56323 -0.83747,0.31373 -0.0198,0.7929 -0.54202,1.56687 -1.37171,2.03314 -0.68407,0.38444 -0.64986,0.38002 -0.99256,0.12824 z m 1.71979,-2.42773 c 0,-0.57863 -0.41329,-0.94632 -0.64403,-0.57297 -0.19332,0.31281 0.097,1.08653 0.40776,1.08653 0.12995,0 0.23627,-0.2311 0.23627,-0.51356 z m 7.32449,-0.59439 c -0.0845,-0.21106 -0.14715,-0.14837 -0.15985,0.15986 -0.0115,0.27891 0.0511,0.43518 0.13897,0.34726 0.0879,-0.0879 0.0973,-0.31612 0.0209,-0.50712 z m -35.6349,-0.0827 c 0,-0.21828 -0.11533,-0.39687 -0.25628,-0.39687 -0.14096,0 -0.18775,0.17859 -0.10399,0.39687 0.0838,0.21828 0.19909,0.39688 0.25628,0.39688 0.0572,0 0.10399,-0.1786 0.10399,-0.39688 z m 36.93694,-0.32522 c -0.26896,-0.26895 -0.49087,0.13597 -0.2702,0.49302 0.16669,0.26973 0.22902,0.26993 0.31863,0.001 0.0613,-0.18383 0.0395,-0.40616 -0.0484,-0.49408 z m -2.54111,0.19293 c 0,-0.14552 -0.12609,-0.26458 -0.2802,-0.26458 -0.15411,0 -0.20661,0.11906 -0.11667,0.26458 0.0899,0.14552 0.21602,0.26458 0.2802,0.26458 0.0642,0 0.11667,-0.11906 0.11667,-0.26458 z m -49.344798,-0.52917 c -0.08994,-0.14552 -0.275557,-0.26458 -0.41249,-0.26458 -0.136932,0 -0.248968,0.11906 -0.248968,0.26458 0,0.14552 0.18562,0.26459 0.41249,0.26459 0.226869,0 0.338905,-0.11907 0.248968,-0.26459 z M 75.40625,120.5229 c 0,-0.14552 -0.119062,-0.26458 -0.264583,-0.26458 -0.145521,0 -0.264584,0.11906 -0.264584,0.26458 0,0.14552 0.119063,0.26458 0.264584,0.26458 0.145521,0 0.264583,-0.11906 0.264583,-0.26458 z m 38.10001,0 c 0,-0.14552 -0.11907,-0.26458 -0.26459,-0.26458 -0.14552,0 -0.26458,0.11906 -0.26458,0.26458 0,0.14552 0.11906,0.26458 0.26458,0.26458 0.14552,0 0.26459,-0.11906 0.26459,-0.26458 z m 13.33938,-0.17016 c 0.0918,-0.23911 0.11241,-0.48916 0.0459,-0.55566 -0.21028,-0.21028 -0.68529,0.21196 -0.68529,0.60914 0,0.51899 0.43362,0.48272 0.63938,-0.0535 z m -48.669316,-1.07735 c 0.141093,-0.32064 0.488955,-0.6176 0.773026,-0.65991 0.284071,-0.0423 0.56854,-0.23486 0.632153,-0.42789 0.09288,-0.28182 0.01545,-0.28836 -0.393126,-0.0332 -0.43041,0.26879 -0.624629,0.21038 -1.260816,-0.37922 l -0.752033,-0.69696 0.05895,-3.35957 c 0.03242,-1.84776 0.154064,-3.52953 0.270318,-3.73727 0.129166,-0.23081 0.04517,-0.57214 -0.21598,-0.87766 -0.835467,-0.9774 -1.69758,-1.80968 -1.855051,-1.79085 -0.08789,0.0105 -0.493819,0.42134 -0.902061,0.91298 -0.711193,0.85647 -0.724165,0.9215 -0.309955,1.55366 0.35947,0.54862 0.415739,1.2529 0.33399,4.18025 -0.05407,1.93625 -0.192263,3.72111 -0.307091,3.96635 -0.168276,0.35939 -8e-5,0.50842 0.867028,0.76821 0.591693,0.17727 1.278759,0.54658 1.526814,0.82068 0.562975,0.62208 1.198342,0.52283 1.533838,-0.2396 z m 19.719519,-1.46364 c 0,-0.11983 -0.23892,-0.09 -0.53094,0.0663 -0.43514,0.23288 -0.64997,0.16512 -1.19063,-0.37554 -0.61754,-0.61754 -0.66308,-0.85063 -0.712748,-3.64827 -0.0801,-4.5131 -0.0198,-4.98105 0.724238,-5.62041 0.82513,-0.70902 0.82275,-0.94006 -0.01,-0.94006 -0.692088,0 -0.822443,-0.41572 -0.684428,-2.18281 0.0952,-1.21856 -0.141825,-1.0465 -2.159845,1.56813 -0.69123,0.89558 -1.25677,1.68303 -1.25677,1.74989 0,0.0669 0.38695,0.19954 0.85989,0.29485 0.5338,0.10757 0.73906,0.24862 0.54124,0.37195 -0.17525,0.10927 -0.2992,0.45682 -0.27544,0.77234 0.0329,0.43686 0.12468,0.50607 0.3848,0.29018 0.18788,-0.15592 0.34533,-0.41774 0.34991,-0.58182 0.009,-0.31933 1.3146,-1.3754 1.3146,-1.06326 0,0.1022 -0.29766,0.57606 -0.66146,1.05303 -0.3638,0.47697 -0.66146,0.97964 -0.66146,1.11706 0,0.13741 -0.17859,0.39806 -0.39687,0.57921 -0.29671,0.24624 -0.39688,0.90599 -0.39688,2.61383 0,1.25645 -0.11075,2.67063 -0.24611,3.14261 -0.21975,0.7662 -0.18874,0.85815 0.28935,0.85815 0.29451,0 0.59011,0.20836 0.65689,0.46302 0.0668,0.25466 0.50148,0.71249 0.96599,1.0174 l 0.844573,0.55438 1.1259,-0.94114 c 0.61925,-0.51762 1.12591,-1.03918 1.12591,-1.159 z m -4.210693,-9.85654 c 0.0276,-0.50118 0.46851,-1.3451 0.48387,-0.92604 0.008,0.21828 -0.10087,0.57547 -0.24194,0.79375 -0.14106,0.21828 -0.24993,0.27781 -0.24193,0.13229 z m 15.33025,11.07465 c 1.06194,-0.9594 1.0641,-0.96529 0.46378,-1.26426 -0.58478,-0.29122 -0.60535,-0.42788 -0.67615,-4.49081 -0.0479,-2.74638 0.0266,-4.31053 0.21614,-4.53888 0.22118,-0.2665 0.11393,-0.46001 -0.45614,-0.82303 -0.40993,-0.26104 -0.81653,-0.57419 -0.90356,-0.6959 -0.087,-0.1217 -0.53251,0.0936 -0.98993,0.47853 -0.67237,0.56576 -0.78143,0.7937 -0.56936,1.18997 0.14428,0.26958 0.26233,2.03346 0.26233,3.91972 v 3.42957 l -0.95172,0.83561 c -1.90877,1.67593 -2.46898,0.71558 -2.47199,-4.23758 -0.001,-1.95507 0.0245,-3.83959 0.0571,-4.18783 0.0437,-0.46697 -0.16011,-0.75718 -0.77661,-1.10569 -0.81506,-0.46076 -0.84802,-0.45886 -1.32291,0.0763 -0.48212,0.54335 -0.48036,0.54568 0.17443,0.2312 0.6233,-0.29935 0.63183,-0.29394 0.14786,0.0938 -0.28247,0.2263 -0.59241,0.41147 -0.68876,0.41147 -0.0963,0 -0.13088,0.56554 -0.0767,1.25677 0.0541,0.69122 0.12596,2.9509 0.1596,5.02151 0.0604,3.71837 0.0701,3.7737 0.78876,4.49191 0.40018,0.39993 0.7276,0.58103 0.7276,0.40244 0,-0.17859 0.25194,-0.32472 0.55987,-0.32472 0.30792,0 1.12755,-0.41672 1.82138,-0.92604 1.17444,-0.86211 2.35272,-1.25745 1.98776,-0.66692 -0.21161,0.34238 0.96835,2.38671 1.37757,2.38671 0.04,0 0.55284,-0.43375 1.13965,-0.96389 z m 7.26093,0.24553 c 0.14109,-0.32064 0.48896,-0.6176 0.77303,-0.65991 0.28407,-0.0423 0.56854,-0.23486 0.63215,-0.42789 0.0929,-0.28182 0.0155,-0.28836 -0.39313,-0.0332 -0.4304,0.26879 -0.62462,0.21038 -1.26081,-0.37922 l -0.75203,-0.69696 0.0589,-3.35957 c 0.0324,-1.84776 0.15406,-3.52953 0.27032,-3.73727 0.21367,-0.3818 0.008,-0.70575 -1.30479,-2.05947 -0.54544,-0.56226 -0.67678,-0.60592 -0.74878,-0.24891 -0.048,0.23812 -0.37221,0.74034 -0.7204,1.11605 -0.4861,0.52451 -0.57332,0.79475 -0.3757,1.16401 0.14156,0.2645 0.25738,1.50077 0.25738,2.74727 0,1.97035 0.0605,2.27036 0.46302,2.29704 0.41775,0.0277 0.41952,0.0422 0.0182,0.1482 -0.2814,0.0743 -0.44083,0.37903 -0.43387,0.8292 0.006,0.39144 -0.12117,1.04687 -0.28273,1.45653 -0.16156,0.40966 -0.29374,0.78738 -0.29374,0.83938 0,0.25373 1.83148,0.65605 2.25198,0.49469 0.33928,-0.1302 0.42228,-0.09 0.28219,0.13669 -0.26145,0.42303 0.34521,1.13592 0.88108,1.03536 0.23167,-0.0435 0.53665,-0.34138 0.67774,-0.66202 z m -28.470297,-0.40612 1.118894,-0.85989 -0.840364,-0.17201 c -0.462201,-0.0946 -1.117797,-0.32048 -1.45688,-0.50195 -0.605122,-0.32385 -0.616636,-0.40698 -0.62306,-4.49847 -0.006,-3.83407 0.03026,-4.15737 0.452229,-4.02951 0.702144,0.21274 2.206343,2.07481 2.035564,2.51986 -0.08231,0.21448 -0.450208,0.55083 -0.81756,0.74743 -0.367351,0.1966 -0.79099,0.58743 -0.94142,0.86851 -0.339657,0.63465 2.083397,-1.03783 2.530834,-1.74688 0.1607,-0.25466 0.49464,-0.46302 0.74209,-0.46302 0.68661,0 0.83232,-0.47976 0.17507,-0.5764 -0.3616,-0.0532 -0.593,-0.28782 -0.61715,-0.62582 -0.0212,-0.29742 -0.556903,-1.02419 -1.190335,-1.61505 l -1.151693,-1.07429 -0.947063,0.60641 c -0.520885,0.33352 -1.185189,0.82217 -1.47623,1.08588 -0.291042,0.26371 -0.609649,0.45265 -0.708016,0.41986 -0.34922,-0.11641 -0.490799,1.42759 -0.442169,4.82211 0.03247,2.26624 -0.05946,3.64267 -0.269475,4.0349 -0.253714,0.47385 -0.24937,0.59601 0.02129,0.59872 0.187021,0.002 0.935351,0.29014 1.662955,0.64059 0.727604,0.35045 1.39057,0.64657 1.473257,0.65805 0.08269,0.0115 0.653843,-0.36608 1.269234,-0.83903 z m 52.171697,0.45623 c 0.42934,-0.22202 0.78061,-0.51967 0.78061,-0.66146 0,-0.14178 0.25477,-0.25779 0.56615,-0.25779 0.96928,0 1.26881,-0.7472 1.27277,-3.175 l 0.004,-2.24896 -1.33799,-0.87504 c -1.11262,-0.72766 -1.28373,-0.94042 -1.01587,-1.26317 0.17715,-0.21346 0.26186,-0.44836 0.18824,-0.52198 -0.0736,-0.0736 -0.41802,0.23968 -0.76531,0.69625 -0.34729,0.45657 -0.86957,1.11696 -1.16061,1.46754 l -0.52916,0.63743 -0.8599,-0.52965 c -0.8188,-0.50434 -0.85989,-0.60702 -0.85989,-2.14934 0,-1.43718 0.0522,-1.59869 0.46303,-1.43331 0.25466,0.10252 1.41552,0.24636 2.57968,0.31965 2.00875,0.12647 2.13559,0.10155 2.48784,-0.4888 0.20414,-0.34214 0.55666,-0.91973 0.78337,-1.28353 0.40157,-0.64442 0.39882,-0.65034 -0.10659,-0.22974 -0.93249,0.77601 -1.64879,0.82222 -3.45066,0.2226 -1.59102,-0.52946 -1.76728,-0.54165 -2.19789,-0.15195 -0.25748,0.23302 -0.5607,0.42367 -0.67383,0.42367 -0.11312,0 -0.66929,0.36719 -1.23593,0.81598 -0.88299,0.69934 -1.03027,0.9641 -1.03027,1.85209 0,0.56985 0.0963,1.0361 0.21402,1.0361 0.11771,0 0.44513,0.1864 0.7276,0.41423 0.49299,0.39762 0.4844,0.4097 -0.21401,0.30127 -0.60849,-0.0945 -0.72761,-0.0172 -0.72761,0.47226 0,0.41761 0.38573,0.825 1.34676,1.42241 l 1.34676,0.83719 -0.56092,0.9883 -0.56091,0.98829 0.73551,-0.79912 c 0.40453,-0.43952 1.11036,-1.27102 1.5685,-1.84778 l 0.83299,-1.04864 0.93065,0.4438 c 0.923,0.44015 0.93144,0.45969 1.02538,2.37694 0.0521,1.06322 0.065,1.97987 0.0287,2.03699 -0.0363,0.0571 -0.23648,-0.0376 -0.44481,-0.21051 -0.43578,-0.36166 -3.02251,-0.82238 -3.52807,-0.62838 -0.1866,0.0716 -0.33928,0.31644 -0.33928,0.54407 0,0.22764 -0.19704,0.63162 -0.43788,0.89774 -0.41788,0.46176 -0.38465,0.48404 0.72761,0.4879 0.64102,0.002 1.34408,0.11947 1.56236,0.26054 0.55373,0.35785 0.96331,0.32731 1.86522,-0.13909 z m -58.331987,-0.48533 c 0.05465,-0.37233 -0.0058,-0.40216 -0.307612,-0.1517 -0.452411,0.37547 -0.498442,0.86115 -0.06802,0.71768 0.169187,-0.0564 0.33822,-0.31109 0.375631,-0.56598 z m 37.965777,0.28707 c -0.0327,-0.31636 -0.39563,-0.25509 -0.50932,0.086 -0.0582,0.17463 0.037,0.26988 0.21166,0.21167 0.17463,-0.0582 0.30857,-0.19215 0.29766,-0.29766 z m 5.67573,-0.0885 c 0.35744,-0.2342 0.58434,-0.53185 0.50425,-0.66146 -0.0801,-0.1296 -0.0279,-0.23564 0.11609,-0.23564 0.16937,0 0.17488,-0.30281 0.0156,-0.85815 -0.13536,-0.47198 -0.24611,-2.28321 -0.24611,-4.02496 0,-2.95813 0.0396,-3.20233 0.60088,-3.70591 0.33048,-0.29651 0.48526,-0.44981 0.34395,-0.34067 -0.5084,0.39269 -0.90579,0.18473 -1.06927,-0.55956 -0.21347,-0.97192 -1.1369,-1.96808 -1.64401,-1.77348 -0.21532,0.0826 -0.50082,0.15023 -0.63444,0.15023 -0.13362,0 -0.24294,0.22424 -0.24294,0.49831 0,0.27579 -0.2363,0.5601 -0.52917,0.63669 -0.29104,0.0761 -0.52917,0.26485 -0.52917,0.41943 0,0.15457 0.16784,0.21664 0.37298,0.13792 0.22906,-0.0879 0.44542,0.0851 0.56073,0.44847 0.25414,0.80071 0.25854,7.62313 0.005,8.40988 -0.16273,0.50579 -0.0544,0.74982 0.55376,1.24725 0.90978,0.74416 0.99382,0.75393 1.82144,0.21165 z m 5.15234,-0.34953 c 0,-0.32821 0.21278,-0.54103 0.59531,-0.59544 0.41787,-0.0594 0.57664,-0.24237 0.53265,-0.61372 -0.0345,-0.29097 -0.0779,-2.13638 -0.0965,-4.10091 -0.0323,-3.40277 0.18032,-4.76364 0.80432,-5.14929 0.15449,-0.0955 0.2809,-0.28839 0.2809,-0.42867 0,-0.14029 -0.30071,-0.058 -0.66824,0.18277 -0.62747,0.41114 -0.70415,0.40786 -1.25677,-0.0538 -0.32369,-0.27039 -0.73146,-0.65795 -0.90614,-0.86125 -0.26624,-0.30986 -0.49089,-0.2324 -1.38906,0.47896 -1.08198,0.85694 -1.33944,1.20216 -0.75007,1.0057 0.17677,-0.0589 0.58652,0.20795 0.91056,0.59306 0.61834,0.73485 0.59849,0.53777 0.63461,6.29817 0.0139,2.21237 0.1176,2.81626 0.58816,3.4244 0.37751,0.48789 0.72028,0.40221 0.72028,-0.18003 z m -0.1934,-2.31842 c 0.25743,-0.0671 0.61462,-0.0627 0.79375,0.01 0.17913,0.0725 -0.0315,0.12736 -0.46806,0.12197 -0.43656,-0.005 -0.58312,-0.0647 -0.32569,-0.13177 z m 4.82361,2.30002 c 0.0899,-0.14552 0.0374,-0.26459 -0.11668,-0.26459 -0.15411,0 -0.2802,0.11907 -0.2802,0.26459 0,0.14552 0.0525,0.26458 0.11668,0.26458 0.0642,0 0.19026,-0.11906 0.2802,-0.26458 z m 0.66146,-1.07395 c 0,-0.13693 -0.1786,-0.24897 -0.39688,-0.24897 -0.40915,0 -0.52564,0.3122 -0.22768,0.61017 0.21139,0.21138 0.62456,-0.0276 0.62456,-0.3612 z m 9.525,-0.77814 c 0,-0.14552 -0.20836,-0.26276 -0.46302,-0.26053 -0.3957,0.003 -0.40532,0.0413 -0.0662,0.26053 0.49933,0.32269 0.52917,0.32269 0.52917,0 z m -63.50001,-0.80936 c 0,-0.13693 -0.119062,-0.24897 -0.264583,-0.24897 -0.145521,0 -0.264583,0.18562 -0.264583,0.41249 0,0.22687 0.119062,0.33891 0.264583,0.24897 0.145521,-0.0899 0.264583,-0.27556 0.264583,-0.41249 z m 39.49553,-0.0192 c 0.37728,-0.37727 0.49788,-2.08006 0.14741,-2.08125 -0.0973,-3.5e-4 -0.43827,0.42238 -0.75778,0.93935 -0.31951,0.51698 -0.64406,0.87684 -0.72121,0.79968 -0.16894,-0.16894 1.04267,-1.99984 1.32512,-2.00241 0.4256,-0.004 0.17131,-0.53206 -0.26458,-0.54957 -0.38456,-0.0154 -0.39478,-0.0491 -0.0603,-0.19844 0.22151,-0.0989 0.40011,-0.41796 0.39688,-0.70901 -0.004,-0.39383 -0.17472,-0.52201 -0.66608,-0.50118 -0.36311,0.0154 -0.79197,-0.15223 -0.95303,-0.37249 -0.24616,-0.33664 -0.32109,-0.28783 -0.47021,0.3063 -0.15234,0.60697 -0.27553,0.68214 -0.87238,0.53234 -0.45667,-0.11462 -0.63597,-0.0789 -0.52286,0.10406 0.10541,0.17056 -0.019,0.22853 -0.32093,0.14957 -0.27732,-0.0725 -0.55497,0.0324 -0.63457,0.23988 -0.19076,0.49709 0.0722,1.79048 0.36398,1.79048 0.12856,0 0.23374,0.12404 0.23374,0.27565 0,0.53391 0.97114,1.3287 1.41527,1.15828 0.27378,-0.10506 0.4368,-0.0336 0.43679,0.19141 -2e-5,0.48281 1.42296,0.4291 1.92471,-0.0726 z m 24.26906,0.0348 c 0,-0.14552 -0.23812,-0.26458 -0.52916,-0.26458 -0.29105,0 -0.52917,0.11906 -0.52917,0.26458 0,0.14552 0.23812,0.26459 0.52917,0.26459 0.29104,0 0.52916,-0.11907 0.52916,-0.26459 z m -64.822923,-0.24249 c 0,-0.1334 -0.148828,-0.30259 -0.330729,-0.37599 -0.181901,-0.0734 0.05622,-0.14285 0.529167,-0.15434 0.820218,-0.0199 0.859895,-0.0687 0.859895,-1.05717 0,-0.59327 0.141388,-1.08387 0.33073,-1.1476 0.251979,-0.0848 0.236229,-0.22574 -0.06615,-0.59188 -0.218282,-0.26431 -0.377851,-0.55156 -0.354599,-0.63834 0.02325,-0.0868 -0.07296,-0.33637 -0.213794,-0.55465 -0.224704,-0.34826 -0.243483,-0.34855 -0.153307,-0.002 0.153317,0.58859 -0.449991,1.0507 -1.137141,0.87101 -0.3926,-0.10267 -0.54403,-0.0593 -0.431126,0.12333 0.107648,0.17418 -0.01404,0.23241 -0.319014,0.15265 -0.277318,-0.0725 -0.554968,0.0324 -0.634572,0.23989 -0.190754,0.49708 0.07217,1.79047 0.36398,1.79047 0.128557,0 0.233739,0.1177 0.233739,0.26156 0,0.32817 0.840642,1.32594 1.117135,1.32594 0.11318,0 0.205782,-0.10914 0.205782,-0.24253 z m 17.991676,0.12586 c 0,-0.0642 -0.11907,-0.19026 -0.26459,-0.2802 -0.14552,-0.0899 -0.26458,-0.0374 -0.26458,0.11668 0,0.1541 0.11906,0.28019 0.26458,0.28019 0.14552,0 0.26459,-0.0525 0.26459,-0.11667 z m -8.863553,-0.94166 c 0.42449,-0.18241 0.3329,-0.23107 -0.46302,-0.24599 -0.545702,-0.0102 -0.992186,0.10047 -0.992186,0.24599 0,0.31595 0.71996,0.31595 1.455206,0 z m 54.28804,-1.37253 c -0.0845,-0.21106 -0.14715,-0.14837 -0.15985,0.15986 -0.0115,0.27891 0.0511,0.43518 0.13897,0.34726 0.0879,-0.0879 0.0973,-0.31612 0.0209,-0.50712 z m -45.400257,-1.33945 c 0.10825,-0.40476 0.0873,-0.7276 -0.0471,-0.7276 -0.13293,0 -0.2417,0.12609 -0.2417,0.28019 0,0.15411 -0.13929,0.19411 -0.30955,0.0889 -0.21389,-0.13219 -0.252,-0.0414 -0.12333,0.29396 0.11075,0.28861 0.0486,0.58003 -0.15347,0.71909 -0.24193,0.16652 -0.19287,0.21068 0.17045,0.15344 0.29734,-0.0468 0.5913,-0.38388 0.70472,-0.80797 z m -25.42424,-0.46302 c 0,-0.14552 -0.119062,-0.26458 -0.264583,-0.26458 -0.145521,0 -0.264583,0.11906 -0.264583,0.26458 0,0.14552 0.119062,0.26458 0.264583,0.26458 0.145521,0 0.264583,-0.11906 0.264583,-0.26458 z m 38.100007,0 c 0,-0.14552 -0.11906,-0.26458 -0.26458,-0.26458 -0.14552,0 -0.26459,0.11906 -0.26459,0.26458 0,0.14552 0.11907,0.26458 0.26459,0.26458 0.14552,0 0.26458,-0.11906 0.26458,-0.26458 z m -0.66146,-0.52917 c 0.0899,-0.14552 0.0374,-0.26458 -0.11667,-0.26458 -0.15411,0 -0.2802,0.11906 -0.2802,0.26458 0,0.14552 0.0525,0.26459 0.11667,0.26459 0.0642,0 0.19027,-0.11907 0.2802,-0.26459 z m -30.294796,-1.00541 c 0,-0.11642 -0.148828,-0.36992 -0.33073,-0.56333 -0.271798,-0.289 -0.203969,-0.32183 0.380661,-0.18424 0.391264,0.0921 0.764237,0.0777 0.82883,-0.032 0.210069,-0.35669 -0.322126,-1.39004 -0.715895,-1.39004 -0.210844,0 -0.430684,-0.14199 -0.488534,-0.31554 -0.06758,-0.20274 -0.458768,-0.0459 -1.094235,0.43884 -0.72436,0.5525 -0.896835,0.81235 -0.644471,0.97097 0.18952,0.11911 0.582707,0.15196 0.873749,0.073 0.408231,-0.11077 0.442353,-0.0838 0.149305,0.11816 -0.314755,0.21689 -0.32054,0.33323 -0.03375,0.67879 0.361278,0.43532 1.075069,0.57167 1.075069,0.20538 z m 38.628196,-0.44875 c 0.68736,-0.73167 0.54719,-1.20619 -0.19106,-0.64682 -0.40023,0.30324 -0.42067,0.301 -0.13869,-0.0152 0.47789,-0.53592 0.4074,-0.99915 -0.20164,-1.3251 -0.43316,-0.23182 -0.70124,-0.15612 -1.4385,0.40622 l -0.90613,0.69114 0.84319,0.76734 c 1.03652,0.94328 1.24962,0.95611 2.03283,0.12243 z m -21.396527,-1.65469 c 0.32911,-0.41964 0.31975,-0.429 -0.0999,-0.0999 -0.25466,0.19972 -0.46302,0.40808 -0.46302,0.46303 0,0.21776 0.21727,0.0776 0.56291,-0.36313 z m 23.778757,-1.38906 c 0,-0.14552 -0.11906,-0.26459 -0.26459,-0.26459 -0.14552,0 -0.26458,0.11907 -0.26458,0.26459 0,0.14552 0.11906,0.26458 0.26458,0.26458 0.14553,0 0.26459,-0.11906 0.26459,-0.26458 z m -16.13959,-0.60848 c 0.36381,-0.15027 0.74084,-0.2832 0.83785,-0.29539 0.097,-0.0122 0.27561,-0.12666 0.39688,-0.25437 0.12517,-0.13182 -0.14519,-0.18111 -0.62544,-0.11402 -0.46526,0.065 -0.79336,0.0331 -0.72912,-0.0708 0.0642,-0.10394 -0.0755,-0.26276 -0.31045,-0.35293 -0.32803,-0.12588 -0.39487,-0.0402 -0.28783,0.36915 0.0767,0.2932 0.0542,0.5331 -0.0498,0.5331 -0.10408,0 -0.42036,0.18476 -0.70283,0.41057 -0.49334,0.39439 -0.48751,0.40343 0.14787,0.22925 0.3638,-0.0997 0.95911,-0.30427 1.32291,-0.45455 z m 37.83542,-0.0374 c 0,-0.70173 -0.44635,-1.13899 -0.78916,-0.77308 -0.26686,0.28485 0.14559,1.41893 0.51605,1.41893 0.15021,0 0.27311,-0.29063 0.27311,-0.64585 z m -43.12709,-0.2802 c 0.18986,-0.22875 0.21557,-0.39687 0.0607,-0.39687 -0.147767,0 -0.337197,0.17859 -0.420957,0.39687 -0.0838,0.21829 -0.11108,0.39688 -0.0607,0.39688 0.0504,0 0.23981,-0.17859 0.420957,-0.39688 z m 26.98751,0.0156 c 0,-0.0642 -0.11906,-0.19026 -0.26459,-0.2802 -0.14552,-0.0899 -0.26458,-0.0374 -0.26458,0.11668 0,0.15411 0.11906,0.2802 0.26458,0.2802 0.14553,0 0.26459,-0.0525 0.26459,-0.11668 z m -33.40233,-2.33072 c -0.12612,-0.38296 -1.2581,-0.61774 -1.2581,-0.26094 0,0.37784 0.31077,0.59167 0.8599,0.59167 0.28739,0 0.45993,-0.1433 0.3982,-0.33073 z m 10.64816,20.70365 c 0,-0.14552 0.11906,-0.26459 0.26458,-0.26459 0.14552,0 0.26459,0.11907 0.26459,0.26459 0,0.14552 -0.11907,0.26458 -0.26459,0.26458 -0.14552,0 -0.26458,-0.11906 -0.26458,-0.26458 z m 33.07292,0 c 0,-0.14552 0.11906,-0.26459 0.26458,-0.26459 0.14552,0 0.26458,0.11907 0.26458,0.26459 0,0.14552 -0.11906,0.26458 -0.26458,0.26458 -0.14552,0 -0.26458,-0.11906 -0.26458,-0.26458 z m 3.43958,-0.39373 c 0,-0.0953 0.19144,-0.36467 0.42541,-0.59865 0.39083,-0.39082 0.41772,-0.38569 0.33073,0.0631 -0.0876,0.45188 -0.75614,0.92538 -0.75614,0.53553 z m -42.465627,-0.92914 c -0.0899,-0.14552 -0.0374,-0.26458 0.11668,-0.26458 0.15411,0 0.2802,0.11906 0.2802,0.26458 0,0.14552 -0.0525,0.26458 -0.11668,0.26458 -0.0642,0 -0.19026,-0.11906 -0.2802,-0.26458 z M 143.80105,122.375 c -0.0899,-0.14552 -0.0374,-0.26458 0.11668,-0.26458 0.15411,0 0.2802,0.11906 0.2802,0.26458 0,0.14552 -0.0525,0.26459 -0.11668,0.26459 -0.0642,0 -0.19026,-0.11907 -0.2802,-0.26459 z m -52.67723,-0.59531 -0.50403,-0.59531 0.59531,0.50403 c 0.55945,0.47366 0.71577,0.68659 0.50403,0.68659 -0.0502,0 -0.31809,-0.26789 -0.59531,-0.59531 z m 1.12038,0.14715 c -0.29797,-0.29797 -0.18148,-0.61017 0.22768,-0.61017 0.21828,0 0.39687,0.11204 0.39687,0.24897 0,0.33363 -0.41317,0.57258 -0.62455,0.3612 z m -19.880658,-0.87475 c 0.08994,-0.14552 0.216026,-0.26459 0.280198,-0.26459 0.06417,0 0.116677,0.11907 0.116677,0.26459 0,0.14552 -0.126089,0.26458 -0.280199,0.26458 -0.154109,0 -0.206613,-0.11906 -0.116676,-0.26458 z m 38.100008,0 c 0.0899,-0.14552 0.21603,-0.26459 0.2802,-0.26459 0.0642,0 0.11667,0.11907 0.11667,0.26459 0,0.14552 -0.12609,0.26458 -0.2802,0.26458 -0.1541,0 -0.20661,-0.11906 -0.11667,-0.26458 z m 19.07195,-16.63324 c -0.11398,-0.18442 -0.13578,-0.40676 -0.0485,-0.49409 0.2368,-0.23679 0.49498,0.11147 0.36708,0.49515 -0.0896,0.26887 -0.15194,0.26866 -0.31863,-0.001 z m -40.32914,-0.82926 c 0,-0.36381 0.06,-0.51263 0.13345,-0.33073 0.0734,0.1819 0.0734,0.47955 0,0.66146 -0.0734,0.1819 -0.13345,0.0331 -0.13345,-0.33073 z m 10.80614,-1.05834 c 0,-0.14552 0.11907,-0.26458 0.26459,-0.26458 0.14552,0 0.26458,0.11906 0.26458,0.26458 0,0.14552 -0.11906,0.26459 -0.26458,0.26459 -0.14552,0 -0.26459,-0.11907 -0.26459,-0.26459 z m -10.31875,-1.32291 c 0,-0.14552 0.17157,-0.26459 0.38126,-0.26459 0.20969,0 0.45484,0.11907 0.54478,0.26459 0.0899,0.14552 -0.0816,0.26458 -0.38126,0.26458 -0.29963,0 -0.54478,-0.11906 -0.54478,-0.26458 z"
       id="path841"
       inkscape:connector-curvature="0" />
  </g>
</svg>
